{
	"asset":{
		"generator":"Khronos glTF Blender I/O v4.3.47",
		"version":"2.0"
	},
	"scene":0,
	"scenes":[
		{
			"extras":{
				"CAPProxy":{
					"disable_updates":0,
					"obj_enable_export":0,
					"obj_origin_point":0,
					"obj_location_preset":0,
					"obj_export_preset":0,
					"obj_pack_script":null,
					"col_enable_export":0,
					"col_origin_point":0,
					"col_root_object":null,
					"col_child_export_option":0,
					"col_location_preset":0,
					"col_export_preset":0,
					"col_pack_script":null
				},
				"CAPScn":{},
				"batch_export":{
					"object_types":127,
					"directory":"//Gltf\\",
					"file_format":6,
					"location":[
						0.0,
						0.0,
						0.0
					],
					"set_scale":0,
					"set_rotation":0,
					"set_location":0,
					"mode":3
				},
				"uuid":"ca54825a-e915-47e2-8061-85196d7d6e30",
				"assets reported":{},
				"power_sequencer":{},
				"bc":{
					"snap":{
						"hit":0
					}
				}
			},
			"name":"Scene",
			"nodes":[
				0
			]
		}
	],
	"nodes":[
		{
			"extras":{
				"bc":{}
			},
			"mesh":0,
			"name":"Cube",
			"rotation":[
				0.41866636276245117,
				0.12538985908031464,
				0.3507079482078552,
				0.8282511830329895
			],
			"scale":[
				0.3385397493839264,
				0.3385397493839264,
				0.338539719581604
			],
			"translation":[
				-0.00026095565408468246,
				0.003376223146915436,
				0.0015169614925980568
			]
		}
	],
	"materials":[
		{
			"doubleSided":true,
			"name":"Material.001",
			"pbrMetallicRoughness":{
				"roughnessFactor":0
			}
		}
	],
	"meshes":[
		{
			"extras":{
				"bc":{}
			},
			"name":"Cube",
			"primitives":[
				{
					"attributes":{
						"POSITION":0,
						"NORMAL":1,
						"TEXCOORD_0":2
					},
					"indices":3,
					"material":0
				}
			]
		}
	],
	"accessors":[
		{
			"bufferView":0,
			"componentType":5126,
			"count":3513,
			"max":[
				2.508044481277466,
				2.496116876602173,
				2.493483781814575
			],
			"min":[
				-2.4789226055145264,
				-2.4908509254455566,
				-2.493483781814575
			],
			"type":"VEC3"
		},
		{
			"bufferView":1,
			"componentType":5126,
			"count":3513,
			"type":"VEC3"
		},
		{
			"bufferView":2,
			"componentType":5126,
			"count":3513,
			"type":"VEC2"
		},
		{
			"bufferView":3,
			"componentType":5123,
			"count":20736,
			"type":"SCALAR"
		}
	],
	"bufferViews":[
		{
			"buffer":0,
			"byteLength":42156,
			"byteOffset":0,
			"target":34962
		},
		{
			"buffer":0,
			"byteLength":42156,
			"byteOffset":42156,
			"target":34962
		},
		{
			"buffer":0,
			"byteLength":28104,
			"byteOffset":84312,
			"target":34962
		},
		{
			"buffer":0,
			"byteLength":41472,
			"byteOffset":112416,
			"target":34963
		}
	],
	"buffers":[
		{
			"byteLength":153888,
			"uri":"Abstract4.bin"
		}
	]
}
